<svg xmlns="http://www.w3.org/2000/svg" xmlns:xlink="http://www.w3.org/1999/xlink" version="1.1" width="800" height="480">
	<g id="0,0">
	<circle cx="400" cy="50" r="30" stroke="black" stroke-width="2" fill="orange" />
	<text x="400" y="50" fill="red" font-size="20" text-anchor="middle" dominant-baseline="middle">1</text>
	<a xlink:href="https://blog.csdn.net/boysoft2002" target="_blank">
	<text x="5" y="20" fill="blue">Hann's CSDN Homepage</text></a>
	</g>
	<g id="1,0">
	<circle cx="200" cy="170" r="30" stroke="black" stroke-width="2" fill="orange" />
	<text x="200" y="170" fill="red" font-size="20" text-anchor="middle" dominant-baseline="middle">2</text>
	<line x1="200" y1="140" x2="379" y2="71" style="stroke:black;stroke-width:2"/>
	</g>
	<g id="1,1">
	<circle cx="600" cy="170" r="30" stroke="black" stroke-width="2" fill="orange" />
	<text x="600" y="170" fill="red" font-size="20" text-anchor="middle" dominant-baseline="middle">3</text>
	<line x1="600" y1="140" x2="421" y2="71" style="stroke:black;stroke-width:2"/>
	</g>
	<g id="2,0">
	<circle cx="100" cy="290" r="30" stroke="black" stroke-width="2" fill="orange" />
	<text x="100" y="290" fill="red" font-size="20" text-anchor="middle" dominant-baseline="middle">4</text>
	<line x1="100" y1="260" x2="179" y2="191" style="stroke:black;stroke-width:2"/>
	</g>
	<g id="2,1">
	<circle cx="300" cy="290" r="30" stroke="black" stroke-width="2" fill="orange" />
	<text x="300" y="290" fill="red" font-size="20" text-anchor="middle" dominant-baseline="middle">5</text>
	<line x1="300" y1="260" x2="221" y2="191" style="stroke:black;stroke-width:2"/>
	</g>
	<g id="2,2">
	<circle cx="500" cy="290" r="30" stroke="black" stroke-width="2" fill="orange" />
	<text x="500" y="290" fill="red" font-size="20" text-anchor="middle" dominant-baseline="middle">6</text>
	<line x1="500" y1="260" x2="579" y2="191" style="stroke:black;stroke-width:2"/>
	</g>
	<g id="2,3">
	<circle cx="700" cy="290" r="30" stroke="black" stroke-width="2" fill="orange" />
	<text x="700" y="290" fill="red" font-size="20" text-anchor="middle" dominant-baseline="middle">7</text>
	<line x1="700" y1="260" x2="621" y2="191" style="stroke:black;stroke-width:2"/>
	</g>
	<g id="3,0">
	<circle cx="50" cy="410" r="30" stroke="black" stroke-width="2" fill="lightgreen" />
	<text x="50" y="410" fill="red" font-size="20" text-anchor="middle" dominant-baseline="middle">8</text>
	<line x1="50" y1="380" x2="79" y2="311" style="stroke:black;stroke-width:2"/>
	</g>
	<g id="3,1">
	<circle cx="150" cy="410" r="30" stroke="black" stroke-width="2" fill="lightgreen" />
	<text x="150" y="410" fill="red" font-size="20" text-anchor="middle" dominant-baseline="middle">9</text>
	<line x1="150" y1="380" x2="121" y2="311" style="stroke:black;stroke-width:2"/>
	</g>
	<g id="3,2">
	<circle cx="250" cy="410" r="30" stroke="black" stroke-width="2" fill="lightgreen" />
	<text x="250" y="410" fill="red" font-size="20" text-anchor="middle" dominant-baseline="middle">10</text>
	<line x1="250" y1="380" x2="279" y2="311" style="stroke:black;stroke-width:2"/>
	</g>
	<g id="3,3">
	<circle cx="350" cy="410" r="30" stroke="black" stroke-width="2" fill="lightgreen" />
	<text x="350" y="410" fill="red" font-size="20" text-anchor="middle" dominant-baseline="middle">11</text>
	<line x1="350" y1="380" x2="321" y2="311" style="stroke:black;stroke-width:2"/>
	</g>
	<g id="3,4">
	<circle cx="450" cy="410" r="30" stroke="black" stroke-width="2" fill="lightgreen" />
	<text x="450" y="410" fill="red" font-size="20" text-anchor="middle" dominant-baseline="middle">12</text>
	<line x1="450" y1="380" x2="479" y2="311" style="stroke:black;stroke-width:2"/>
	</g>
	<g id="3,5">
	<circle cx="550" cy="410" r="30" stroke="black" stroke-width="2" fill="lightgreen" />
	<text x="550" y="410" fill="red" font-size="20" text-anchor="middle" dominant-baseline="middle">13</text>
	<line x1="550" y1="380" x2="521" y2="311" style="stroke:black;stroke-width:2"/>
	</g>
	<g id="3,6">
	<circle cx="650" cy="410" r="30" stroke="black" stroke-width="2" fill="lightgreen" />
	<text x="650" y="410" fill="red" font-size="20" text-anchor="middle" dominant-baseline="middle">14</text>
	<line x1="650" y1="380" x2="679" y2="311" style="stroke:black;stroke-width:2"/>
	</g>
	<g id="3,7">
	<circle cx="750" cy="410" r="30" stroke="black" stroke-width="2" fill="lightgreen" />
	<text x="750" y="410" fill="red" font-size="20" text-anchor="middle" dominant-baseline="middle">15</text>
	<line x1="750" y1="380" x2="721" y2="311" style="stroke:black;stroke-width:2"/>
	</g>
</svg>